<svg xmlns="http://www.w3.org/2000/svg" width="32" height="32">
    <path style="stroke:none;fill-rule:nonzero;fill:#000;fill-opacity:1" d="M20 17.332h2v3.762l3.254 1.879-1 1.734L20 22.254v-4.922m5.332-6.664H6.668v14.664h6.227a9.32 9.32 0 0 1-.895-4C12 16.18 16.18 12 21.332 12c1.43 0 2.79.32 4 .895v-2.227M6.668 28C5.188 28 4 26.8 4 25.332V6.668A2.66 2.66 0 0 1 6.668 4H8V1.332h2.668V4h10.664V1.332H24V4h1.332A2.669 2.669 0 0 1 28 6.668v8.133a9.277 9.277 0 0 1 2.668 6.531 9.336 9.336 0 0 1-9.336 9.336A9.277 9.277 0 0 1 14.801 28H6.668m14.664-13.133a6.465 6.465 0 0 0-6.465 6.465 6.467 6.467 0 1 0 6.465-6.465Zm0 0"/>
</svg>
